<svg width="18" height="16" viewBox="0 0 22 18" fill="none" xmlns="http://www.w3.org/2000/svg" focusable="false" aria-hidden="true" class="icon-check-yes"><path d="M19.4375 0.890625C19.5312 0.796875 19.625 0.75 19.8125 0.75C19.9531 0.75 20.0938 0.796875 20.2344 0.890625L21.5469 2.25C21.6406 2.34375 21.7344 2.48438 21.7344 2.625C21.7344 2.8125 21.6406 2.95312 21.5469 3.04688L7.48438 17.1094C7.39062 17.2031 7.25 17.25 7.10938 17.25C6.92188 17.25 6.78125 17.2031 6.6875 17.1094L0.453125 10.8281C0.3125 10.7344 0.265625 10.6406 0.265625 10.4531C0.265625 10.3125 0.3125 10.1719 0.453125 10.0312L1.76562 8.71875C1.85938 8.625 2 8.53125 2.1875 8.53125C2.32812 8.53125 2.46875 8.625 2.5625 8.71875L7.10938 13.2656L19.4375 0.890625Z" fill="#30c8c9"></path></svg>